<svg xmlns="http://www.w3.org/2000/svg" viewBox="0 0 200 200">
    
    <!-- Male -->
    <!-- Head/Skin -->
    <circle cx="70" cy="100" r="18" fill="#ffd1a3"/>
    <!-- Spiky Hair (Fitted to head, less floating) -->
    <path d="M52,95 L50,85 C55,80 60,75 65,78 L70,72 L75,76 L80,72 L85,78 C88,80 88,85 86,92 C80,85 70,82 60,85 Z" fill="#2b1a10"/>
    <!-- Face (Eye & Smile - simpler curve) -->
    <circle cx="78" cy="98" r="1.8" fill="#333"/>
    <path d="M82,106 Q84,107 85,106" fill="none" stroke="#333" stroke-width="1.2" stroke-linecap="round"/>
    
    <!-- Male Shirt base -->
    <path fill="#8ca8d9" d="M30,190 C30,150 50,130 70,130 C80,130 90,135 100,145 L110,140 L115,150 L100,160 L100,190 Z"/>
    <!-- Male Arm holding bouquet -->
    <path d="M70,140 L105,155 L100,165 L65,150 Z" fill="#7593c4"/>

    <!-- Female (Shifted Right by 15px with transform group) -->
    <g transform="translate(26, 0)">
        <!-- Long Hair Back (Sweeping, voluminous curve) -->
        <path d="M140,85 C170,85 175,115 170,145 C165,170 148,165 145,160 C155,145 158,115 140,85 Z" fill="#3d2111"/>
        <!-- Head/Skin -->
        <circle cx="140" cy="110" r="17" fill="#ffe0bd"/>
        <!-- Front Hair / Elegant Swept Bangs -->
        <path d="M123,112 C120,92 135,86 150,88 C162,90 162,105 158,115 C152,100 142,96 132,102 C128,105 125,108 123,112 Z" fill="#3d2111"/>
        <!-- Small Red Hair Clip -->
        <circle cx="154" cy="102" r="2.5" fill="#ff4f87"/>
        <!-- Face (Eye & Smile - simpler curve) -->
        <circle cx="132" cy="108" r="1.8" fill="#333"/>
        <path d="M128,116 Q126,117 125,116" fill="none" stroke="#333" stroke-width="1.2" stroke-linecap="round"/>

        <!-- Female Shirt base -->
        <path fill="#fce4ec" d="M120,140 C130,135 150,135 160,140 L170,190 L110,190 Z"/>
        <!-- Female Arm -->
        <path d="M140,140 L120,160 L125,165 L145,145 Z" fill="#f8bbd0"/>
    </g>

    <!-- Bouquet (Rotated and shifted right so it doesn't block male face) -->
    <g transform="translate(118, 138) rotate(10)">
        <!-- Wrapping Paper Back -->
        <path d="M-15,-10 L-25,-25 C-10,-30 10,-30 25,-25 L15,-10 Z" fill="#ffeebb" opacity="0.9"/>
        
        <!-- Dense Cluster of Roses & Flowers -->
        <!-- Row 3 (Back) -->
        <circle cx="-12" cy="-18" r="6" fill="#ff4f87"/>
        <circle cx="0" cy="-22" r="7" fill="#ffb6c1"/>
        <circle cx="12" cy="-18" r="6" fill="#ff87ab"/>
        <path d="M0,-22 A2.5,2.5 0 0,1 -2,-19 A2.5,2.5 0 0,1 -3,-21" fill="none" stroke="#fff" stroke-width="0.6" opacity="0.6"/>
        
        <!-- Row 2 -->
        <circle cx="-16" cy="-10" r="6" fill="#ffb6c1"/>
        <circle cx="-8" cy="-14" r="7" fill="#d6336c"/>
        <circle cx="8" cy="-14" r="7" fill="#ff4f87"/>
        <circle cx="16" cy="-10" r="6" fill="#ffb6c1"/>
        <path d="M-8,-14 A2.5,2.5 0 0,1 -10,-11 A2.5,2.5 0 0,1 -11,-13" fill="none" stroke="#fff" stroke-width="0.6" opacity="0.6"/>
        <path d="M8,-14 A2.5,2.5 0 0,1 6,-11 A2.5,2.5 0 0,1 5,-13" fill="none" stroke="#fff" stroke-width="0.6" opacity="0.6"/>
        
        <!-- Row 1 (Front) -->
        <circle cx="-10" cy="-4" r="7" fill="#ff87ab"/>
        <circle cx="0" cy="-6" r="8" fill="#ffb6c1"/>
        <circle cx="10" cy="-4" r="7" fill="#d6336c"/>
        <path d="M0,-6 A3,3 0 0,1 -2,-3 A3,3 0 0,1 -4,-5" fill="none" stroke="#fff" stroke-width="0.7" opacity="0.6"/>
        <path d="M-10,-4 A2.5,2.5 0 0,1 -12,-1 A2.5,2.5 0 0,1 -13,-3" fill="none" stroke="#fff" stroke-width="0.6" opacity="0.6"/>
        <path d="M10,-4 A2.5,2.5 0 0,1 8,-1 A2.5,2.5 0 0,1 7,-3" fill="none" stroke="#fff" stroke-width="0.6" opacity="0.6"/>
        
        <!-- Small filler flowers and leaves -->
        <circle cx="-18" cy="-15" r="2" fill="#fff"/>
        <circle cx="18" cy="-15" r="2.5" fill="#fff"/>
        <circle cx="0" cy="-15" r="2" fill="#fff"/>
        <path d="M-10,-20 Q-15,-25 -12,-28 Q-8,-25 -10,-20" fill="#2d6a4f" />
        <path d="M10,-20 Q15,-25 12,-28 Q8,-25 10,-20" fill="#2d6a4f" />
        <path d="M-18,-8 Q-25,-10 -25,-5 Q-20,-2 -18,-8" fill="#1b4332" />
        <path d="M18,-8 Q25,-10 25,-5 Q20,-2 18,-8" fill="#1b4332" />
        
        <!-- Wrapping Paper Front & Cone -->
        <path d="M-15,-2 L0,20 L15,-2 C8,2 -8,2 -15,-2 Z" fill="#fffdf5" stroke="#eccdb6" stroke-width="0.5"/>
        <path d="M-15,-2 Q0,4 15,-2" fill="none" stroke="#d4a373" stroke-width="1"/>
        
        <!-- Ribbon/Bow -->
        <path d="M0,8 C-10,5 -15,15 0,10 C15,15 10,5 0,8 Z" fill="#ff4f87"/>
        <path d="M-2,9 C-10,20 -5,25 -2,25 C0,25 0,15 -2,9 Z" fill="#ff87ab"/>
        <path d="M2,9 C10,20 5,25 2,25 C0,25 0,15 2,9 Z" fill="#ffb6c1"/>
    </g>
</svg>
